<svg width="202" height="118" viewBox="0 0 202 118" fill="none" xmlns="http://www.w3.org/2000/svg">
<path d="M201.381 30.8519L119.845 6L95 87.513L176.536 112.365L201.381 30.8519Z" fill="#F5DE19"/>
<path d="M155.207 86.3765C155.472 87.999 156.189 89.5138 157.278 90.7462C158.366 91.9786 159.781 92.8785 161.358 93.3421C164.532 94.3095 167.046 93.3416 167.716 91.1436C168.514 88.5236 166.715 86.9507 163.686 84.3572L162.02 82.9523C157.205 78.9107 154.435 74.8434 156.336 68.6076C158.086 62.8639 163.788 59.8197 170.64 61.9082C172.907 62.4241 174.972 63.5959 176.577 65.2773C178.183 66.9587 179.257 69.0754 179.667 71.3633L172.51 73.3658C172.419 72.2656 171.996 71.219 171.296 70.3648C170.597 69.5106 169.654 68.8891 168.593 68.5829C168.146 68.3963 167.665 68.3048 167.181 68.3142C166.697 68.3237 166.221 68.4338 165.782 68.6376C165.343 68.8414 164.951 69.1344 164.631 69.498C164.312 69.8615 164.071 70.2877 163.926 70.7492C163.226 73.0461 164.366 74.4117 167.218 76.8432L168.884 78.2482C174.544 83.0246 177.358 86.9907 175.408 93.3865C173.306 100.283 166.735 102.41 159.458 100.192C156.568 99.5084 153.937 98.0032 151.883 95.8579C149.829 93.7127 148.44 91.0191 147.883 88.1022L155.207 86.3765ZM127.937 78.7904C128.49 81.2908 129.034 83.4295 131.667 84.2318C134.183 84.9987 136.073 84.4993 137.24 80.6711L145.178 54.6248L152.84 56.96L144.87 83.1082C142.453 91.0382 136.693 93.228 129.911 91.1609C127.474 90.5612 125.275 89.2382 123.604 87.3659C121.933 85.4937 120.867 83.1597 120.547 80.6708L127.937 78.7904Z" fill="black"/>
<path d="M39.5463 105.761L0 32.2725L73.5723 0.000123971L100.857 78.8675L74.2113 101.456L39.5463 105.761Z" fill="#1172B8"/>
<path d="M70.1146 8.78366L39.4595 22.2305L72.2065 96.8849L93.389 78.5097L70.1146 8.78366Z" fill="#33AADD"/>
<path d="M66.8966 55.6131L36.2415 69.0599L30.0306 59.0673L51.2132 40.692L26.6891 51.4495L21.1465 42.9805L68.662 22.1379L71.8073 33.4752L55.223 49.8334L73.6161 41.7653L83.2484 72.0576L67.5285 86.2199L46.4622 88.1938L38.2464 73.6305L47.443 69.5965L52.3172 76.542L62.8504 75.555L70.7103 68.4739L66.8966 55.6131Z" fill="white"/>
<path d="M59.1036 102.266L51 1H148.243L140.139 102.266L99.6215 114.418L59.1036 102.266Z" fill="#E44D26"/>
<path d="M140.139 9.10156H99.6211V108.342L132.035 98.2155L140.139 9.10156Z" fill="#F16529"/>
<path d="M73.2847 59.7344L69.2329 21.2534H132.036L130.01 33.4053H81.3883L83.4142 47.5825H127.984L123.932 86.0636L99.6213 94.1648L75.3106 86.0636L73.2847 65.8104H85.4401L87.466 75.937L99.6213 79.9876L111.777 75.937L113.803 59.7344H73.2847Z" fill="white"/>
</svg>
